<?xml version="1.0" encoding="UTF-8" standalone="no"?>
<!-- Created with Inkscape (http://www.inkscape.org/) -->

<svg
   xmlns:dc="http://purl.org/dc/elements/1.1/"
   xmlns:cc="http://creativecommons.org/ns#"
   xmlns:rdf="http://www.w3.org/1999/02/22-rdf-syntax-ns#"
   xmlns:svg="http://www.w3.org/2000/svg"
   xmlns="http://www.w3.org/2000/svg"
   xmlns:sodipodi="http://sodipodi.sourceforge.net/DTD/sodipodi-0.dtd"
   xmlns:inkscape="http://www.inkscape.org/namespaces/inkscape"
   width="744.09448819"
   height="1052.3622047"
   id="svg2"
   version="1.1"
   inkscape:version="0.48.3.1 r9886"
   sodipodi:docname="basketball_court.svg">
  <defs
     id="defs4">
    <inkscape:path-effect
       effect="spiro"
       id="path-effect3808"
       is_visible="true" />
  </defs>
  <sodipodi:namedview
     id="base"
     pagecolor="#ffffff"
     bordercolor="#666666"
     borderopacity="1.0"
     inkscape:pageopacity="0.0"
     inkscape:pageshadow="2"
     inkscape:zoom="0.7"
     inkscape:cx="449.75215"
     inkscape:cy="880.80051"
     inkscape:document-units="px"
     inkscape:current-layer="layer1"
     showgrid="false"
     inkscape:window-width="1301"
     inkscape:window-height="744"
     inkscape:window-x="65"
     inkscape:window-y="24"
     inkscape:window-maximized="1" />
  <metadata
     id="metadata7">
    <rdf:RDF>
      <cc:Work
         rdf:about="">
        <dc:format>image/svg+xml</dc:format>
        <dc:type
           rdf:resource="http://purl.org/dc/dcmitype/StillImage" />
        <dc:title></dc:title>
      </cc:Work>
    </rdf:RDF>
  </metadata>
  <g
     inkscape:label="Layer 1"
     inkscape:groupmode="layer"
     id="layer1">
    <rect
       style="fill:#0000ff;fill-rule:evenodd;stroke:#000000;stroke-width:1.05308938px;stroke-linecap:butt;stroke-linejoin:miter;stroke-opacity:1"
       id="rect3004"
       width="258.54596"
       height="377.74396"
       x="250.54437"
       y="-0.19022401" />
    <path
       sodipodi:type="arc"
       style="fill:#ff0000;fill-rule:evenodd;stroke:#000000;stroke-width:1px;stroke-linecap:butt;stroke-linejoin:miter;stroke-opacity:1"
       id="path3008"
       sodipodi:cx="386.88843"
       sodipodi:cy="359.39752"
       sodipodi:rx="130.30968"
       sodipodi:ry="125.25892"
       d="m 517.1981,359.39752 a 130.30968,125.25892 0 1 1 -260.61935,0 130.30968,125.25892 0 1 1 260.61935,0 z"
       transform="matrix(1.0014658,0,0,1,-6.8190422,0)" />
    <path
       sodipodi:type="arc"
       style="opacity:0.54320984;fill:none"
       id="path3786"
       sodipodi:cx="97.984795"
       sodipodi:cy="-24.46043"
       sodipodi:rx="97.984795"
       sodipodi:ry="137.38075"
       d="m 195.96959,-24.46043 a 97.984795,137.38075 0 1 1 -195.96959,0 97.984795,137.38075 0 1 1 195.96959,0 z" />
    <path
       sodipodi:type="arc"
       style="opacity:0.54320984000000005;fill:#ff0000;stroke:none;stroke-width:590.55167735999998513;stroke-miterlimit:4;stroke-dasharray:none;fill-opacity:0.45177665"
       id="path3788"
       sodipodi:cx="381.83768"
       sodipodi:cy="74.534523"
       sodipodi:rx="375.77673"
       sodipodi:ry="406.08133"
       d="m 757.61441,74.534523 a 375.77673,406.08133 0 1 1 -751.5534664,0 375.77673,406.08133 0 1 1 751.5534664,0 z"
       transform="matrix(0.86738032,0.0152066,0,1,45.292565,-1.7658419)" />
    <path
       style="fill:none;stroke:#000000;stroke-width:1px;stroke-linecap:butt;stroke-linejoin:miter;stroke-opacity:1"
       d="m -31.428571,655.21933 1047.142871,0"
       id="path3806"
       inkscape:path-effect="#path-effect3808"
       inkscape:original-d="m -31.428571,655.21933 c 1044.285671,0 1047.142871,0 1047.142871,0"
       inkscape:connector-curvature="0" />
    <path
       style="opacity:0.54320984000000005;fill:none;fill-opacity:0.97969545999999996;stroke:none"
       d="m 359.25158,481.62126 c -31.385,-6.00809 -53.59157,-17.88756 -74.41361,-39.80775 -37.6156,-39.59945 -43.95489,-97.27822 -15.896,-144.63174 7.89677,-13.32697 28.87991,-34.28054 42.13066,-42.07129 55.30224,-32.51485 122.96628,-23.70753 165.46173,21.53691 13.79873,14.69135 24.92182,34.97231 30.06606,54.8201 3.56727,13.76343 3.56727,41.95084 0,55.71428 -11.72491,45.23772 -48.11089,80.94023 -93.96557,92.20062 -15.30427,3.75821 -40.02964,4.79518 -53.38327,2.23887 l 0,0 z"
       id="path3810"
       inkscape:connector-curvature="0" />
    <path
       style="opacity:0.54320984000000005;fill:#ececec;stroke:none"
       d="m 359.25158,481.62126 c -31.385,-6.00809 -53.59157,-17.88756 -74.41361,-39.80775 -37.6156,-39.59945 -43.95489,-97.27822 -15.896,-144.63174 7.89677,-13.32697 28.87991,-34.28054 42.13066,-42.07129 55.30224,-32.51485 122.96628,-23.70753 165.46173,21.53691 13.79873,14.69135 24.92182,34.97231 30.06606,54.8201 3.56727,13.76343 3.56727,41.95084 0,55.71428 -11.72491,45.23772 -48.11089,80.94023 -93.96557,92.20062 -15.30427,3.75821 -40.02964,4.79518 -53.38327,2.23887 l 0,0 z"
       id="path3812"
       inkscape:connector-curvature="0" />
    <path
       style="opacity:0.54320984;fill:#ececec;fill-opacity:0.97969546;stroke:none"
       d="m 355.75215,480.05021 c -5.10714,-1.0247 -14.04975,-3.53267 -19.87245,-5.57325 -39.91317,-13.98773 -72.4088,-50.53127 -81.03333,-91.12746 -3.12497,-14.70942 -1.93012,-43.85648 2.3611,-57.5963 9.88291,-31.64354 34.56793,-60.17027 64.97325,-75.08496 22.11305,-10.8471 32.82814,-13.24358 59.28571,-13.25954 20.04409,-0.0121 23.35082,0.355 34.88726,3.87299 43.98813,13.41402 74.65443,43.55391 88.19883,86.68483 2.86121,9.11127 3.34249,13.62638 3.34249,31.35811 0,17.73172 -0.48128,22.24684 -3.34249,31.3581 -15.0804,48.02216 -55.28703,82.78514 -104.07401,89.98326 -13.45167,1.98467 -33.11485,1.71395 -44.72636,-0.61578 z"
       id="path3814"
       inkscape:connector-curvature="0" />
    <path
       style="opacity:0.54320984;fill:#ececec;fill-opacity:0.97969546;stroke:none"
       d="m 251.59417,166.82463 -0.12774,-166.07142967 127.85715,0 127.85714,0 -0.0387,161.07142967 -0.0387,161.07143 -4.0339,-9.45353 c -12.70627,-29.77773 -33.77311,-52.17234 -62.31724,-66.24503 -22.02327,-10.8578 -31.64249,-12.88089 -60.71429,-12.76929 -22.91367,0.088 -26.04871,0.41658 -37.56655,3.93779 -44.27449,13.53554 -76.55943,45.53497 -88.88755,88.10149 -1.55799,5.37942 -1.88269,-20.67443 -1.98959,-159.64286 z"
       id="path3816"
       inkscape:connector-curvature="0" />
    <path
       style="opacity:0.54320984;fill:#ececec;fill-opacity:0.97969546;stroke:none"
       d="m 332.89501,479.76169 c -1.96429,-0.33133 -10.90015,-2.52818 -19.85745,-4.88188 C 204.33512,446.31624 113.02574,348.85984 72.88184,218.55661 64.535827,191.46626 58.259306,161.18331 54.091302,127.89606 51.573601,107.78874 51.563296,37.784886 54.07511,17.896057 61.44663,-40.472487 74.581569,-86.347745 97.53418,-133.88966 l 11.5524,-23.92857 264.51055,0 264.51055,0 7.27554,13.21429 c 23.33919,42.3901 40.69334,93.888417 49.5573,147.060926 9.03821,54.217829 8.50349,117.261474 -1.46381,172.581924 -3.51115,19.48755 -12.81768,54.02552 -19.89193,73.82209 -8.77315,24.55067 -30.83445,68.80137 -44.38869,89.03506 -49.13604,73.34998 -112.66703,120.53331 -186.60518,138.58835 -19.31913,4.71756 -27.18403,5.45608 -16.12448,1.51409 23.68432,-8.44187 46.3592,-24.974 60.4358,-44.06341 18.78419,-25.47342 27.54833,-56.15492 24.45746,-85.62065 -0.64227,-6.12297 -1.20244,-87.47195 -1.2448,-180.77553 l -0.077,-169.6428525 -129.95351,0 -129.95352,0 -0.40362,183.2142825 c -0.222,100.76786 0.112,188.03572 0.74227,193.92857 2.05225,19.18872 8.47655,36.50325 19.68457,53.05315 15.72396,23.21821 33.35251,36.61794 67.02667,50.94795 3.6383,1.54828 2.12523,1.80306 -4.28571,0.72168 l 0,0 z"
       id="path3818"
       inkscape:connector-curvature="0" />
  </g>
</svg>
